<svg width="723" height="274" viewBox="0 0 723 274" fill="none" xmlns="http://www.w3.org/2000/svg">
<path d="M293.729 95.0587C306.323 84.2447 320.429 80.946 336.16 83.6485C339.148 84.2526 340.832 87.0394 340.02 90.2033L338.339 107.154C337.907 110.346 335.205 110.902 332.738 110.906C326.353 110.043 318.835 111.564 313.147 116.448C302.179 125.865 301.252 142.875 311.005 154.234C320.759 165.593 337.505 167.428 348.476 158.008C357.213 150.507 357.413 142.934 358.108 136.344C358.311 133.703 359.995 131.556 362.665 131.375L377.846 131.38C381.272 131.261 383.827 132.591 384.146 135.841C386.474 152.524 381.106 168.058 366.686 180.441C343.733 200.148 307.941 199.158 287.038 174.813C266.135 150.468 270.979 114.592 293.729 95.0587Z" fill="white"/>
<path d="M330.64 152.328C329.201 152.328 328.156 150.773 328.156 149.044V134.695C328.156 132.966 329.203 131.409 330.64 131.409H354.305H377.971C379.279 131.409 380.454 132.963 380.454 134.695V149.044C380.454 150.773 379.279 152.328 377.971 152.328H330.64Z" fill="white"/>
<path d="M440.476 83.4958C457.077 83.4958 469.928 90.1822 480.102 102.48C481.976 104.885 481.438 108.096 478.761 109.968L466.443 121.733C464.036 123.873 461.624 122.535 459.749 120.932C455.467 116.117 448.772 112.373 441.275 112.373C426.819 112.373 415.035 124.675 415.035 139.646C415.035 154.619 426.545 166.921 441.006 166.921C452.521 166.921 457.606 161.305 462.426 156.759C464.3 154.887 466.977 154.354 469.121 155.957L480.635 165.85C483.312 167.992 484.384 170.665 482.509 173.339C473.407 187.513 459.215 195.802 440.208 195.802C409.955 195.802 383.445 171.735 383.445 139.646C383.445 107.559 410.492 83.4958 440.476 83.4958Z" fill="white"/>
<path d="M441.363 195.802C424.763 195.802 411.912 189.116 401.738 176.818C399.864 174.413 400.402 171.202 403.079 169.33L415.397 157.565C417.804 155.425 420.216 156.763 422.09 158.366C426.373 163.181 433.067 166.925 440.564 166.925C455.021 166.925 466.805 154.623 466.805 139.652C466.805 124.679 455.294 112.377 440.834 112.377C429.319 112.377 424.234 117.993 419.413 122.539C417.539 124.411 414.862 124.943 412.719 123.341L401.205 113.447C398.528 111.306 397.456 108.633 399.331 105.959C408.432 91.7849 422.624 83.4959 441.632 83.4959C471.885 83.4959 498.395 107.563 498.395 139.652C498.395 171.739 471.348 195.802 441.363 195.802Z" fill="white"/>
<path d="M517.862 93.5614C530.457 82.7474 544.563 79.4487 560.293 82.1512C563.282 82.7553 564.965 85.5421 564.154 88.706L562.473 105.657C562.04 108.848 559.338 109.404 556.872 109.409C550.486 108.546 542.968 110.066 537.28 114.95C526.312 124.368 525.386 141.378 535.139 152.736C544.892 164.096 561.639 165.931 572.61 156.511C581.346 149.01 581.546 141.437 582.242 134.847C582.445 132.206 584.129 130.058 586.799 129.878L601.98 129.883C605.405 129.764 607.96 131.094 608.28 134.344C610.608 151.027 605.24 166.561 590.819 178.943C567.866 198.651 532.075 197.661 511.171 173.315C490.268 148.97 495.113 113.094 517.862 93.5614Z" fill="white"/>
<path d="M554.773 150.83C553.335 150.83 552.29 149.275 552.29 147.547V133.197C552.29 131.469 553.337 129.911 554.773 129.911H578.439H602.105C603.412 129.911 604.588 131.466 604.588 133.197V147.547C604.588 149.275 603.412 150.83 602.105 150.83H554.773Z" fill="white"/>
<path d="M664.61 81.9987C681.21 81.9987 694.061 88.685 704.236 100.983C706.11 103.388 705.571 106.599 702.895 108.471L690.577 120.236C688.17 122.376 685.757 121.038 683.883 119.434C679.601 114.62 672.906 110.876 665.409 110.876C650.952 110.876 639.169 123.178 639.169 138.149C639.169 153.122 650.679 165.423 665.139 165.423C676.654 165.423 681.74 159.808 686.56 155.262C688.434 153.39 691.111 152.857 693.255 154.46L704.769 164.353C707.446 166.494 708.518 169.168 706.643 171.841C697.541 186.016 683.349 194.305 664.342 194.305C634.089 194.305 607.579 170.238 607.579 138.149C607.579 106.062 634.626 81.9987 664.61 81.9987Z" fill="white"/>
<path d="M665.497 194.305C648.897 194.305 636.046 187.618 625.872 175.321C623.998 172.915 624.536 169.704 627.213 167.833L639.53 156.067C641.938 153.927 644.35 155.266 646.224 156.869C650.506 161.684 657.201 165.427 664.698 165.427C679.155 165.427 690.938 153.126 690.938 138.154C690.938 123.182 679.428 110.88 664.968 110.88C653.453 110.88 648.368 116.496 643.547 121.042C641.673 122.914 638.996 123.446 636.853 121.844L625.338 111.95C622.662 109.809 621.589 107.136 623.464 104.462C632.566 90.2875 646.758 81.9986 665.766 81.9986C696.019 81.9986 722.528 106.066 722.528 138.154C722.528 170.242 695.481 194.305 665.497 194.305Z" fill="white"/>
<g filter="url(#filter0_d_26_38)">
<path d="M194.58 216.461C150.45 248.128 89.0052 238.025 57.3381 193.895C25.6711 149.766 35.774 88.3204 79.9037 56.6534C119.82 28.0097 173.904 33.5409 207.302 67.5163C207.302 67.5163 140.111 116.159 98.2012 146.233C84.9627 155.733 78.1914 183.229 92.3811 200.408C106.571 217.587 125.283 216.084 133.621 213.361C141.96 210.637 148.636 205.404 151.872 200.264C155.108 195.125 162.321 182.933 160.447 155.719C158.379 125.687 164.879 119.733 177.165 110.344C189.452 100.954 206.481 104.972 213.591 107.842C220.712 110.715 235.274 120.36 235.577 138.479C234.969 168.398 220.764 197.672 194.58 216.461Z" fill="url(#paint0_linear_26_38)"/>
</g>
<defs>
<filter id="filter0_d_26_38" x="34.8867" y="38.2019" width="204.69" height="204.711" filterUnits="userSpaceOnUse" color-interpolation-filters="sRGB">
<feFlood flood-opacity="0" result="BackgroundImageFix"/>
<feColorMatrix in="SourceAlpha" type="matrix" values="0 0 0 0 0 0 0 0 0 0 0 0 0 0 0 0 0 0 127 0" result="hardAlpha"/>
<feOffset dy="4"/>
<feGaussianBlur stdDeviation="2"/>
<feComposite in2="hardAlpha" operator="out"/>
<feColorMatrix type="matrix" values="0 0 0 0 0 0 0 0 0 0 0 0 0 0 0 0 0 0 0.25 0"/>
<feBlend mode="normal" in2="BackgroundImageFix" result="effect1_dropShadow_26_38"/>
<feBlend mode="normal" in="SourceGraphic" in2="effect1_dropShadow_26_38" result="shape"/>
</filter>
<linearGradient id="paint0_linear_26_38" x1="0.00884834" y1="66.7122" x2="252.803" y2="227.793" gradientUnits="userSpaceOnUse">
<stop stop-color="white"/>
</linearGradient>
</defs>
</svg>
